# xmcd
#
# Track frame offsets:
#	150
#	12777
#	25223
#	37303
#	49273
#	60200
#	72637
#	83817
#	96432
#	108103
#	118140
#	129938
#	142140
#	153119
#	167684
#	178138
#	191140
#	203864
#
# Disc length: 2891 seconds
#
# Revision: 1
# Processed by: cddbd v1.5.1PL0 Copyright (c) Steve Scherf et al.
# Submitted via: audiograbber 1.83.01
#
DISCID=000b4912
DTITLE=div - Country History#6
DYEAR=2005
DGENRE=Country
TTITLE0=Texas Top Hands - 12Th Street Rag
TTITLE1=Richard Prine - Adam's Apple
TTITLE2=Bill Strenght - Black Coffee Blues
TTITLE3=Jesse James - Darling I Don't Understand
TTITLE4=Johnny Hicks - Hamburger Hop
TTITLE5=Buster Martin - Herbie's Steel Guitar Polka
TTITLE6=Cotton Thompson - How Long
TTITLE7=Hank Williams - I Just Don't Like This Kind Of Living
TTITLE8=Tennessee Ernie Ford - I'll Never Be Free
TTITLE9=Jimmy Price - Live And Let Live
TTITLE10=Hank Williams - Long Gone Lonesome Blues
TTITLE11=Jerry Irby - Trouble In Mind
TTITLE12=Hank Williams - Lonesome Whistle
TTITLE13=Gene Autry - South Of The Boarder
TTITLE14=Andy Schroder - Prairie Dog Ramble
TTITLE15=Hank Williams - Jambalaya
TTITLE16=Carl Smith - Let Old Mother Nature
TTITLE17=Hank Williams - Hey Good Lookin' 
EXTD=
EXTT0=
EXTT1=
EXTT2=
EXTT3=
EXTT4=
EXTT5=
EXTT6=
EXTT7=
EXTT8=
EXTT9=
EXTT10=
EXTT11=
EXTT12=
EXTT13=
EXTT14=
EXTT15=
EXTT16=
EXTT17=
PLAYORDER=
